<?xml version="1.0"?>
<svg xmlns="http://www.w3.org/2000/svg" xmlns:xlink="http://www.w3.org/1999/xlink" xmlns:svgjs="http://svgjs.com/svgjs" version="1.1" width="512" height="512" x="0" y="0" viewBox="0 0 512 512" style="enable-background:new 0 0 512 512" xml:space="preserve"><g><g xmlns="http://www.w3.org/2000/svg"><g><g><path d="m310.63 387.71c-6.893.215-12.074-7.54-9.23-13.821 3.278-8.16 15.182-8.16 18.46 0 2.843 6.281-2.336 14.037-9.23 13.821z" fill="#ffffff" data-original="#000000" style=""/></g><g><path d="m167.888 450.158c-2.559 0-5.119-.976-7.071-2.929l-51.745-51.745c-3.905-3.905-3.905-10.237 0-14.143 3.905-3.905 10.237-3.905 14.143 0l51.745 51.745c3.905 3.905 3.905 10.237 0 14.143-1.953 1.953-4.513 2.929-7.072 2.929z" fill="#ffffff" data-original="#000000" style=""/></g><g><path d="m180.959 405.675c-2.56 0-5.118-.976-7.071-2.929l-20.333-20.333c-3.905-3.905-3.905-10.237.001-14.142 3.905-3.904 10.237-3.905 14.142 0l20.333 20.333c3.905 3.905 3.905 10.237-.001 14.142-1.952 1.952-4.512 2.929-7.071 2.929z" fill="#ffffff" data-original="#000000" style=""/></g><g><path d="m512 93.105c0-2.652-1.054-5.196-2.93-7.071l-38.812-38.803c-3.905-3.904-10.236-3.904-14.142.001l-14.276 14.276-4.132-4.132c-3.905-3.905-10.237-3.905-14.143 0s-3.905 10.237 0 14.143l4.133 4.133-7.619 7.619-4.133-4.133c-3.905-3.905-10.237-3.905-14.143 0-3.905 3.905-3.905 10.237 0 14.143l4.133 4.133-80.677 80.676c-39.157-24.239-78.499-23.749-104.065 1.818-7.256 7.249-12.693 14.366-16.62 21.756-14.381 27.05-46.492 51.374-74.696 56.578-20.995 3.878-39.996 13.403-54.95 27.547-19.266 18.23-29.727 42.01-30.25 68.768-.703 35.9 16.73 74.745 47.832 106.573 31.389 32.12 70.086 50.661 106.169 50.869.208.001.414.002.622.002 26.588 0 50.498-9.861 69.179-28.54 15.28-15.284 25.507-35.004 29.578-57.028.548-2.966 1.324-6.031 2.305-9.11 1.678-5.262-1.228-10.888-6.49-12.565-5.262-1.678-10.888 1.227-12.565 6.49-1.236 3.876-2.217 7.763-2.918 11.551-3.331 18.026-11.649 34.113-24.054 46.521-14.846 14.844-33.868 22.68-55.044 22.68-.164 0-.332 0-.497-.001-30.775-.178-64.301-16.524-91.98-44.848-27.379-28.02-42.738-61.626-42.14-92.203.417-21.277 8.716-40.168 23.999-54.63 12.143-11.485 27.647-19.234 44.837-22.409 34.167-6.305 71.481-34.423 88.725-66.858 2.982-5.611 7.266-11.169 13.1-16.998 24.096-24.096 56.971-11.599 75.289-1.326l-81.891 81.893c-15.159-.728-30.559 4.682-42.109 16.232-10.528 10.528-16.326 24.525-16.326 39.413 0 14.887 5.798 28.884 16.325 39.412 10.526 10.528 24.523 16.326 39.412 16.326 14.888 0 28.885-5.798 39.415-16.326 11.547-11.549 16.957-26.948 16.23-42.104l81.811-81.813c10.166 18.455 22.288 51.723-3.03 77.042-4.292 4.295-9.186 7.961-14.545 10.893-2.703 1.478-5.439 3.129-8.133 4.91-4.608 3.044-5.875 9.248-2.831 13.856 1.923 2.911 5.106 4.488 8.353 4.488 1.893 0 3.806-.537 5.503-1.658 2.232-1.475 4.487-2.836 6.705-4.049 7.033-3.848 13.458-8.66 19.094-14.301 15.009-15.009 22.174-34.338 20.72-55.898-1.093-16.203-7-33.328-17.174-49.944l80.735-80.734 5.866 5.866c1.953 1.953 4.512 2.929 7.071 2.929s5.119-.976 7.071-2.929c3.905-3.905 3.905-10.237 0-14.143l-5.866-5.866 7.619-7.619 5.867 5.867c1.953 1.953 4.512 2.929 7.071 2.929s5.119-.976 7.071-2.929c3.905-3.905 3.905-10.237 0-14.143l-5.867-5.867 14.28-14.281c1.875-1.878 2.928-4.422 2.928-7.074zm-260.693 262.429c-6.751 6.75-15.726 10.468-25.272 10.468s-18.52-3.717-25.269-10.468c-13.935-13.934-13.935-36.607 0-50.54 6.966-6.966 16.117-10.449 25.269-10.449 9.151 0 18.305 3.483 25.271 10.448 13.931 13.934 13.931 36.608.001 50.541zm24.498-50.371c-2.599-5.164-6.05-10.005-10.355-14.311 0 0-.001-.001-.001-.002-4.305-4.304-9.146-7.755-14.308-10.353l147.175-147.178 24.668 24.663zm161.322-161.322-24.666-24.665 7.619-7.619 24.666 24.665zm21.761-21.763-24.665-24.665 7.619-7.619 24.665 24.665zm-2.904-46.428 7.206-7.206 24.668 24.663-7.208 7.209z" fill="#ffffff" data-original="#000000" style=""/></g></g><path d="m146.087 79.545c0-3.223-1.553-6.248-4.172-8.126-2.619-1.879-5.982-2.38-9.035-1.346l-78.362 26.529c-4.061 1.375-6.794 5.185-6.794 9.472v75.593c-4.233-1.907-8.926-2.969-13.862-2.969-18.671 0-33.862 15.19-33.862 33.862 0 18.671 15.19 33.862 33.862 33.862s33.862-15.19 33.862-33.862c0-.581 0-99.314 0-99.314l58.362-19.758v61.649c-4.233-1.907-8.926-2.969-13.862-2.969-18.672 0-33.862 15.19-33.862 33.862s15.19 33.862 33.862 33.862 33.862-15.19 33.862-33.862c.001-.581.001-106.485.001-106.485zm-112.225 146.877c-7.644 0-13.862-6.218-13.862-13.862s6.219-13.862 13.862-13.862 13.862 6.219 13.862 13.862c.001 7.643-6.218 13.862-13.862 13.862zm78.363-26.53c-7.644 0-13.862-6.219-13.862-13.862 0-7.644 6.219-13.862 13.862-13.862 7.644 0 13.862 6.219 13.862 13.862 0 7.644-6.219 13.862-13.862 13.862z" fill="#ffffff" data-original="#000000" style=""/><path d="m466.136 351.839-33.771-11.433c-3.054-1.034-6.416-.532-9.035 1.346s-4.172 4.903-4.172 8.126v75.592c-4.233-1.907-8.926-2.969-13.862-2.969-18.672 0-33.862 15.19-33.862 33.862s15.19 33.862 33.862 33.862 33.862-15.19 33.862-33.862c0-.581 0-2.352 0-2.667v-89.875l20.565 6.962c5.231 1.773 10.908-1.034 12.678-6.265 1.772-5.232-1.034-10.908-6.265-12.679zm-60.84 118.386c-7.644 0-13.862-6.219-13.862-13.862 0-7.644 6.219-13.862 13.862-13.862 7.644 0 13.862 6.219 13.862 13.862 0 7.644-6.218 13.862-13.862 13.862z" fill="#ffffff" data-original="#000000" style=""/><g><g><path d="m273.354 107.599c-1.969 0-3.937-.58-5.635-1.739-7.056-4.813-42.672-29.471-50.948-42.328-3.604-5.6-8.301-14.487-7.5-26.972 1.333-20.72 18.295-36.78 38.592-36.559 11.409.124 20.482 6.188 26.489 11.858 6.153-5.458 15.274-11.288 26.158-11.288.11 0 .219 0 .329.001 20.308.219 36.91 16.639 37.796 37.381.534 12.471-4.351 21.265-8.072 26.795-8.604 12.78-44.621 36.587-51.754 41.23-1.659 1.082-3.558 1.621-5.455 1.621zm-25.889-87.599c-9.439 0-17.6 7.965-18.236 17.844-.335 5.226.927 9.533 4.359 14.864 3.997 6.211 24.128 21.716 39.894 32.813 15.942-10.722 36.332-25.763 40.488-31.938 3.549-5.274 4.906-9.555 4.683-14.774-.425-9.953-8.514-18.134-18.03-18.236-7.969-.069-16.583 9.526-18.44 12.105-1.929 2.68-5.04 4.226-8.359 4.154-3.302-.08-6.351-1.786-8.147-4.557-2.223-3.355-9.85-12.185-18.03-12.274-.06-.001-.121-.001-.182-.001z" fill="#ffffff" data-original="#000000" style=""/></g></g></g></g></svg>
