<?xml version="1.0" encoding="iso-8859-1"?>
<!-- Generator: Adobe Illustrator 19.0.0, SVG Export Plug-In . SVG Version: 6.00 Build 0)  -->
<svg version="1.1" id="Layer_1" xmlns="http://www.w3.org/2000/svg" xmlns:xlink="http://www.w3.org/1999/xlink" x="0px" y="0px"
	 viewBox="0 0 512 512" style="enable-background:new 0 0 512 512;" xml:space="preserve">
<g>
	<path style="fill:#B5651E;" d="M156.271,467.068c-0.121-0.099-12.22-10.125-24.175-33.317
		c-20.117-39.031-24.34-84.613-24.34-115.978c0-3.912-2.484-7.393-6.185-8.665c-3.701-1.272-7.799-0.051-10.204,3.035
		c-0.454,0.585-11.229,14.546-18.741,35.081c-10.188,27.855-9.497,54.603,1.998,77.355c8.335,16.496,12.086,26.796,13.764,32.904
		c-14.284-0.496-38.716,0.855-55.016,13.685c-9.671,7.612-15.185,17.981-16.389,30.814c-0.241,2.567,0.612,5.118,2.348,7.023
		c1.736,1.907,4.196,2.993,6.773,2.993h96.255c4.728,0,8.678-3.597,9.12-8.305c0.656-6.982,3.546-16.709,21.005-20.553
		c3.431-0.755,6.11-3.421,6.923-6.839C160.223,472.885,158.992,469.288,156.271,467.068z"/>
	<path style="fill:#B5651E;" d="M98.596,273.014l0.001-41.706c0.453-0.556,0.895-1.104,1.295-1.631
		c3.148-4.135,5.647-9.05,7.429-14.612c1.544-4.819-1.11-9.975-5.929-11.521c-4.812-1.538-9.974,1.11-11.519,5.929
		c-1.144,3.571-2.679,6.635-4.558,9.105c-3.069,4.031-9.168,10.231-15.626,16.796c-21.439,21.797-35.493,37.074-35.493,50.304
		c0,34.116,3.871,51.167,13.36,58.855c3.293,2.668,7.116,4.03,11.224,4.03c1.356,0,2.745-0.148,4.154-0.447
		c18.82-3.993,19.881-34.085,18.986-50.687l19.588-6.574c4.797-1.61,7.38-6.802,5.77-11.599
		C105.994,275.425,102.424,273.014,98.596,273.014z"/>
</g>
<path style="fill:#FF9F34;" d="M494.532,499.785c-12.492-35.331-57.229-40.047-104.593-45.042
	c-22.88-2.414-46.539-4.908-68.557-10.69c-20.617-5.416-38.462-35.798-53.042-90.303c-13.284-49.661-21.635-111.371-28.346-160.955
	c-3.359-24.828-6.261-46.272-9.343-63.66c-7.752-43.743-20.374-75.385-38.584-96.734c-15.948-18.697-35.821-29.136-60.757-31.914
	C87.82-4.351,66.858,28.162,58.966,40.405c-0.432,0.673-0.826,1.283-1.181,1.819c-1.708,2.582-10.639,5.879-15.975,7.848
	c-9.451,3.486-17.613,6.498-21.59,12.898c-5.983,9.625,2.813,21.093,11.143,30.007c6.845,7.324,14.192,13.53,14.501,13.79
	c2.02,1.701,4.674,2.45,7.288,2.048c12.272-1.88,27.181-0.77,40.969,1.333c4.116,4.723,13.844,18.412,6.941,36.041
	c-11.631,29.698-11.631,56.937-11.631,171.584c0,86.632,28.605,133.241,44.722,152.625c-1.723,0.908-3.38,1.876-4.909,2.958
	c-9.335,6.61-14.87,16.51-16.006,28.628c-0.241,2.567,0.612,5.118,2.348,7.023c1.736,1.907,4.196,2.993,6.773,2.993h123.625
	c3.753,0,7.128-2.29,8.513-5.779l11.533-29.031c14.163,8.274,36.657,16.259,67.149,23.817C362.601,508.301,393.013,512,423.576,512
	h62.318c2.973,0,5.763-1.444,7.48-3.872C495.092,505.699,495.523,502.59,494.532,499.785z"/>
<path style="fill:#FFDCAF;" d="M101.063,146.189c-11.631,29.698-11.631,56.937-11.631,171.584
	c0,86.632,28.605,133.241,44.722,152.625c22.575-4.971,66.774,5.779,66.774,5.779s0.105-1.315-0.58-4.036l-1.504-4.571
	c-2.963-7.481-10.099-20.023-27.238-38.342c-17.878-19.109-11.869-41.101-3.815-56.057l-1.807-5.49
	c0,0-16.582-209.225-36.186-259.349c-22.038,3.755-22.038,3.755-35.676,1.816C98.239,114.871,107.966,128.56,101.063,146.189z"/>
<path style="fill:#FF9F34;" d="M221.354,273.714c-1.609-4.797-6.802-7.379-11.6-5.771l-0.447,0.15l-21.204-53.841
	c2.189-11.005,1.3-20.31,1.235-20.94c-0.517-5.023-4.999-8.669-10.023-8.165c-5.024,0.503-8.693,4.99-8.206,10.015
	c0.018,0.183,1.687,18.51-6.792,29.646c-3.069,4.031-9.168,10.231-15.625,16.796c-21.44,21.797-35.493,37.074-35.493,50.305
	c0,34.116,3.871,51.166,13.36,58.854c3.293,2.668,7.116,4.03,11.224,4.03c1.356,0,2.745-0.148,4.154-0.447
	c11.044-2.343,17.362-13.662,18.775-33.643c0.447-6.321,0.351-12.475,0.145-17.023l54.724-18.364
	C220.379,283.703,222.964,278.511,221.354,273.714z"/>
<path style="fill:#DA7A27;" d="M494.532,499.785c-12.492-35.331-57.229-40.047-104.593-45.042
	c-22.88-2.414-46.539-4.908-68.557-10.69c-20.617-5.416-38.462-35.798-53.042-90.303c-13.284-49.661-21.635-111.371-28.346-160.955
	c-3.359-24.828-6.261-46.272-9.343-63.66c-7.752-43.743-20.374-75.385-38.584-96.734c-15.948-18.697-35.821-29.136-60.757-31.914
	c-9.647-1.074-18.181-0.303-25.714,1.671c20.171,4.263,36.749,14.207,50.427,30.243c18.21,21.35,30.832,52.992,38.584,96.734
	c3.082,17.388,5.984,38.832,9.343,63.66c6.711,49.584,15.062,111.293,28.346,160.955c14.58,54.505,32.426,84.888,53.042,90.303
	c22.018,5.782,45.678,8.276,68.557,10.69c47.364,4.994,92.101,9.71,104.593,45.042c0.992,2.804,0.559,5.914-1.157,8.342
	c-1.717,2.428-4.506,3.872-7.48,3.872h36.043c2.973,0,5.763-1.444,7.48-3.872C495.092,505.699,495.523,502.59,494.532,499.785z"/>
<path d="M97.957,69.746c-5.81,0-10.537-4.72-10.537-10.52s4.727-10.52,10.537-10.52c5.81,0,10.539,4.72,10.539,10.52
	S103.768,69.746,97.957,69.746z"/>
<path style="fill:#A86B38;" d="M164.27,92.619c-1.646,0-3.314-0.443-4.816-1.375c-4.301-2.665-5.627-8.312-2.961-12.611
	c6.29-10.15,6.422-15.195,5.614-16.443c-1.434-2.214-9.312-3.218-14.756-2.487c-5.019,0.675-9.626-2.842-10.302-7.858
	c-0.674-5.013,2.844-9.626,7.858-10.3c2.414-0.326,23.85-2.789,32.577,10.681c5.741,8.86,3.918,20.99-5.416,36.056
	C170.332,91.081,167.336,92.619,164.27,92.619z"/>
<g>
</g>
<g>
</g>
<g>
</g>
<g>
</g>
<g>
</g>
<g>
</g>
<g>
</g>
<g>
</g>
<g>
</g>
<g>
</g>
<g>
</g>
<g>
</g>
<g>
</g>
<g>
</g>
<g>
</g>
</svg>
