<?xml version="1.0"?>
<svg xmlns="http://www.w3.org/2000/svg" xmlns:xlink="http://www.w3.org/1999/xlink" xmlns:svgjs="http://svgjs.com/svgjs" version="1.1" width="512" height="512" x="0" y="0" viewBox="0 0 512 512" style="enable-background:new 0 0 512 512" xml:space="preserve" class=""><g><path xmlns="http://www.w3.org/2000/svg" d="m272 185.691406v242.375c-8.808594-3.761718-18.9375-6.066406-30-6.066406-33.648438 0-60 19.761719-60 45s26.351562 45 60 45 60-19.761719 60-45v-198.679688l180-51.429687v151.175781c-8.808594-3.761718-18.9375-6.066406-30-6.066406-33.648438 0-60 19.761719-60 45s26.351562 45 60 45 60-19.761719 60-45v-289.894531zm0 0" fill="#ffffff" data-original="#000000" style=""/><path xmlns="http://www.w3.org/2000/svg" d="m240 165v-30c0-74.441406-60.558594-135-135-135h-15v248.34375c-8.859375-5.167969-19.023438-8.34375-30-8.34375-33.089844 0-60 26.910156-60 60s26.910156 60 60 60 60-26.910156 60-60v-268.929688c50.816406 7.292969 90 51.121094 90 103.929688v30c0 8.277344-6.722656 15-15 15s-15-6.722656-15-15v-30h-30v30c0 24.8125 20.1875 45 45 45s45-20.1875 45-45zm0 0" fill="#ffffff" data-original="#000000" style=""/></g></svg>
